<mxfile host="drawio-plugin" modified="2022-02-04T02:28:20.785Z" agent="5.0 (Windows NT 6.2; Win64; x64) AppleWebKit/537.36 (KHTML, like Gecko) Chrome/89.0.4389.114 Safari/537.36" etag="G-ceRMnvLCzYDUkoW-Es" version="15.5.4" type="embed"><diagram id="C5RBs43oDa-KdzZeNtuy" name="Page-1"><mxGraphModel dx="1632" dy="1101" grid="1" gridSize="10" guides="1" tooltips="1" connect="1" arrows="1" fold="1" page="1" pageScale="1" pageWidth="827" pageHeight="1169" math="0" shadow="0"><root><mxCell id="WIyWlLk6GJQsqaUBKTNV-0"/><mxCell id="WIyWlLk6GJQsqaUBKTNV-1" parent="WIyWlLk6GJQsqaUBKTNV-0"/><mxCell id="8nMAeHYY5S97hFpeKEm5-14" value="" style="edgeStyle=orthogonalEdgeStyle;rounded=0;orthogonalLoop=1;jettySize=auto;html=1;" parent="WIyWlLk6GJQsqaUBKTNV-1" source="8nMAeHYY5S97hFpeKEm5-5" target="8nMAeHYY5S97hFpeKEm5-15" edge="1"><mxGeometry relative="1" as="geometry"><mxPoint x="280" y="180" as="targetPoint"/></mxGeometry></mxCell><mxCell id="8nMAeHYY5S97hFpeKEm5-5" value="用户服务" style="rounded=1;whiteSpace=wrap;html=1;fillColor=#dae8fc;strokeColor=#6c8ebf;" parent="WIyWlLk6GJQsqaUBKTNV-1" vertex="1"><mxGeometry x="80" y="150" width="120" height="60" as="geometry"/></mxCell><mxCell id="8nMAeHYY5S97hFpeKEm5-11" value="启动服务" style="text;html=1;align=center;verticalAlign=middle;resizable=0;points=[];autosize=1;" parent="WIyWlLk6GJQsqaUBKTNV-1" vertex="1"><mxGeometry x="210" y="150" width="60" height="20" as="geometry"/></mxCell><mxCell id="8nMAeHYY5S97hFpeKEm5-39" style="edgeStyle=orthogonalEdgeStyle;rounded=0;orthogonalLoop=1;jettySize=auto;html=1;entryX=0;entryY=0.103;entryDx=0;entryDy=0;entryPerimeter=0;" parent="WIyWlLk6GJQsqaUBKTNV-1" source="8nMAeHYY5S97hFpeKEm5-15" target="8nMAeHYY5S97hFpeKEm5-29" edge="1"><mxGeometry relative="1" as="geometry"/></mxCell><mxCell id="8nMAeHYY5S97hFpeKEm5-15" value="扫描本服务的白名单" style="rounded=0;whiteSpace=wrap;html=1;" parent="WIyWlLk6GJQsqaUBKTNV-1" vertex="1"><mxGeometry x="294" y="150" width="120" height="60" as="geometry"/></mxCell><mxCell id="8nMAeHYY5S97hFpeKEm5-16" value="" style="edgeStyle=orthogonalEdgeStyle;rounded=0;orthogonalLoop=1;jettySize=auto;html=1;" parent="WIyWlLk6GJQsqaUBKTNV-1" source="8nMAeHYY5S97hFpeKEm5-17" target="8nMAeHYY5S97hFpeKEm5-19" edge="1"><mxGeometry relative="1" as="geometry"><mxPoint x="280" y="300" as="targetPoint"/></mxGeometry></mxCell><mxCell id="8nMAeHYY5S97hFpeKEm5-17" value="消息服务" style="rounded=1;whiteSpace=wrap;html=1;fillColor=#fff2cc;strokeColor=#d6b656;" parent="WIyWlLk6GJQsqaUBKTNV-1" vertex="1"><mxGeometry x="80" y="270" width="120" height="60" as="geometry"/></mxCell><mxCell id="8nMAeHYY5S97hFpeKEm5-18" value="启动服务" style="text;html=1;align=center;verticalAlign=middle;resizable=0;points=[];autosize=1;" parent="WIyWlLk6GJQsqaUBKTNV-1" vertex="1"><mxGeometry x="210" y="270" width="60" height="20" as="geometry"/></mxCell><mxCell id="8nMAeHYY5S97hFpeKEm5-35" style="edgeStyle=orthogonalEdgeStyle;rounded=0;orthogonalLoop=1;jettySize=auto;html=1;entryX=0;entryY=0.517;entryDx=0;entryDy=0;entryPerimeter=0;" parent="WIyWlLk6GJQsqaUBKTNV-1" source="8nMAeHYY5S97hFpeKEm5-19" target="8nMAeHYY5S97hFpeKEm5-29" edge="1"><mxGeometry relative="1" as="geometry"/></mxCell><mxCell id="8nMAeHYY5S97hFpeKEm5-19" value="扫描本服务的白名单" style="rounded=0;whiteSpace=wrap;html=1;" parent="WIyWlLk6GJQsqaUBKTNV-1" vertex="1"><mxGeometry x="294" y="270" width="120" height="60" as="geometry"/></mxCell><mxCell id="8nMAeHYY5S97hFpeKEm5-24" value="" style="edgeStyle=orthogonalEdgeStyle;rounded=0;orthogonalLoop=1;jettySize=auto;html=1;" parent="WIyWlLk6GJQsqaUBKTNV-1" source="8nMAeHYY5S97hFpeKEm5-25" target="8nMAeHYY5S97hFpeKEm5-27" edge="1"><mxGeometry relative="1" as="geometry"><mxPoint x="280" y="410" as="targetPoint"/></mxGeometry></mxCell><mxCell id="8nMAeHYY5S97hFpeKEm5-25" value="其它服务" style="rounded=1;whiteSpace=wrap;html=1;fillColor=#d5e8d4;strokeColor=#82b366;" parent="WIyWlLk6GJQsqaUBKTNV-1" vertex="1"><mxGeometry x="80" y="380" width="120" height="60" as="geometry"/></mxCell><mxCell id="8nMAeHYY5S97hFpeKEm5-26" value="启动服务" style="text;html=1;align=center;verticalAlign=middle;resizable=0;points=[];autosize=1;" parent="WIyWlLk6GJQsqaUBKTNV-1" vertex="1"><mxGeometry x="210" y="380" width="60" height="20" as="geometry"/></mxCell><mxCell id="8nMAeHYY5S97hFpeKEm5-40" style="edgeStyle=orthogonalEdgeStyle;rounded=0;orthogonalLoop=1;jettySize=auto;html=1;entryX=0;entryY=0.897;entryDx=0;entryDy=0;entryPerimeter=0;" parent="WIyWlLk6GJQsqaUBKTNV-1" source="8nMAeHYY5S97hFpeKEm5-27" target="8nMAeHYY5S97hFpeKEm5-29" edge="1"><mxGeometry relative="1" as="geometry"/></mxCell><mxCell id="8nMAeHYY5S97hFpeKEm5-27" value="扫描本服务的白名单" style="rounded=0;whiteSpace=wrap;html=1;" parent="WIyWlLk6GJQsqaUBKTNV-1" vertex="1"><mxGeometry x="294" y="380" width="120" height="60" as="geometry"/></mxCell><mxCell id="8nMAeHYY5S97hFpeKEm5-28" value="DB" style="shape=cylinder;whiteSpace=wrap;html=1;boundedLbl=1;backgroundOutline=1;" parent="WIyWlLk6GJQsqaUBKTNV-1" vertex="1"><mxGeometry x="650" y="250" width="60" height="80" as="geometry"/></mxCell><mxCell id="8nMAeHYY5S97hFpeKEm5-33" style="edgeStyle=orthogonalEdgeStyle;rounded=0;orthogonalLoop=1;jettySize=auto;html=1;entryX=0;entryY=0.563;entryDx=0;entryDy=0;entryPerimeter=0;" parent="WIyWlLk6GJQsqaUBKTNV-1" source="8nMAeHYY5S97hFpeKEm5-29" target="8nMAeHYY5S97hFpeKEm5-28" edge="1"><mxGeometry relative="1" as="geometry"/></mxCell><mxCell id="8nMAeHYY5S97hFpeKEm5-29" value="&lt;p style=&quot;line-height: 130%&quot;&gt;使用openfeign，调用认证服务，&lt;span&gt;保存&lt;/span&gt;&lt;span&gt;白名单接口&lt;/span&gt;&lt;/p&gt;" style="rounded=1;whiteSpace=wrap;html=1;fontStyle=1;horizontal=1;verticalAlign=middle;align=center;fillColor=#f5f5f5;strokeColor=#666666;fontColor=#333333;" parent="WIyWlLk6GJQsqaUBKTNV-1" vertex="1"><mxGeometry x="490" y="150" width="70" height="290" as="geometry"/></mxCell><mxCell id="8nMAeHYY5S97hFpeKEm5-41" value="扫描控制层中方法使用@Whitelist的接口" style="shape=callout;whiteSpace=wrap;html=1;perimeter=calloutPerimeter;align=left;" parent="WIyWlLk6GJQsqaUBKTNV-1" vertex="1"><mxGeometry x="294" y="70" width="120" height="80" as="geometry"/></mxCell></root></mxGraphModel></diagram></mxfile>